/* XPM */
static char * bottom_left_inactive_xpm[] = {
"24 5 3 1",
" 	c None",
".	c #3D4852",
"#	c #393939",
"#.......................",
"#.......................",
"#.......................",
"#.......................",
"########################"};
